<svg t="1655608104769" class="icon" viewBox="0 0 1024 1024" version="1.1" xmlns="http://www.w3.org/2000/svg" p-id="2747" width="128" height="128"><path d="M917.333333 469.333333H106.666667c-12.8 0-21.333333-8.533333-21.333334-21.333333v-170.666667c0-12.8 8.533333-21.333333 21.333334-21.333333h298.666666V106.666667c0-12.8 8.533333-21.333333 21.333334-21.333334h170.666666c12.8 0 21.333333 8.533333 21.333334 21.333334v149.333333h298.666666c12.8 0 21.333333 8.533333 21.333334 21.333333v170.666667c0 12.8-8.533333 21.333333-21.333334 21.333333zM128 426.666667h768v-128H597.333333c-12.8 0-21.333333-8.533333-21.333333-21.333334V128h-128v149.333333c0 12.8-8.533333 21.333333-21.333333 21.333334H128v128z" p-id="2748"></path><path d="M853.333333 938.666667H170.666667c-12.8 0-21.333333-8.533333-21.333334-21.333334V448c0-12.8 8.533333-21.333333 21.333334-21.333333h682.666666c12.8 0 21.333333 8.533333 21.333334 21.333333v469.333333c0 12.8-8.533333 21.333333-21.333334 21.333334zM192 896h640V469.333333H192v426.666667z" p-id="2749"></path><path d="M341.333333 936.533333c-12.8 0-21.333333-8.533333-21.333333-21.333333V746.666667c0-12.8 8.533333-21.333333 21.333333-21.333334s21.333333 8.533333 21.333334 21.333334v168.533333c0 12.8-8.533333 21.333333-21.333334 21.333333zM512 936.533333c-12.8 0-21.333333-8.533333-21.333333-21.333333V746.666667c0-12.8 8.533333-21.333333 21.333333-21.333334s21.333333 8.533333 21.333333 21.333334v168.533333c0 12.8-8.533333 21.333333-21.333333 21.333333zM682.666667 936.533333c-12.8 0-21.333333-8.533333-21.333334-21.333333V746.666667c0-12.8 8.533333-21.333333 21.333334-21.333334s21.333333 8.533333 21.333333 21.333334v168.533333c0 12.8-8.533333 21.333333-21.333333 21.333333z" p-id="2750"></path></svg>