<svg class="icon" viewBox="0 0 1024 1024" xmlns="http://www.w3.org/2000/svg" width="128" height="128"><path d="M979.2 158.848a32 32 0 0 0-38.4-23.936l-166.848 38.656a32 32 0 0 0-15.808 53.408l36.416 37.664L600 438.208l-101.024-95.68a32 32 0 0 0-45.152 1.152L237.088 570.944A64 64 0 1 0 288 633.6c0-6.944-1.376-13.472-3.424-19.712l193.536-202.944 99.232 93.952a32 32 0 0 0 43.296.64l218.4-194.816 41.504 42.976a32 32 0 0 0 53.92-13.92l44.448-165.408a31.84 31.84 0 0 0 .288-15.52z"/><path d="M928 450.464a32 32 0 0 0-32 32V736a32 32 0 0 1-32 32H160a32 32 0 0 1-32-32V160a32 32 0 0 1 32-32h530.656a32 32 0 0 0 0-64H160a96 96 0 0 0-96 96v576a96 96 0 0 0 96 96h704a96 96 0 0 0 96-96V482.464a32 32 0 0 0-32-32zM912 896H112a32 32 0 0 0 0 64h800a32 32 0 0 0 0-64z"/></svg>