<svg class="icon" viewBox="0 0 1024 1024" xmlns="http://www.w3.org/2000/svg" width="128" height="128"><path d="M0 513.022a510.978 510.978 0 1 0 1021.956 0A510.978 510.978 0 1 0 0 513.022Z" fill="#FF8962"/><path d="M765.445 514.555c0-26.06-12.774-50.587-36.79-72.048 24.016-20.95 36.79-45.477 36.79-72.048 0-39.345-28.615-75.114-80.734-100.152-47.01-22.483-108.328-35.257-173.733-35.257s-126.723 12.263-173.732 35.257c-52.12 25.038-80.735 60.807-80.735 100.152 0 26.57 12.774 51.098 36.79 72.048-24.016 20.95-36.79 45.988-36.79 72.048s12.263 50.076 35.768 70.515c-22.994 20.95-35.768 44.966-35.768 70.515 0 39.345 28.615 75.114 80.735 100.152 47.01 22.483 108.327 35.257 173.732 35.257s126.723-12.263 173.733-35.257c52.12-25.038 80.734-60.807 80.734-100.152 0-25.55-12.263-50.076-35.768-70.515 23.505-20.44 35.768-44.966 35.768-70.515zm-407.76-201.836c40.367-19.418 95.042-30.66 153.293-30.66 58.252 0 112.415 10.731 153.293 30.66 34.747 16.862 54.164 37.812 54.164 57.74 0 19.928-19.928 41.39-54.164 57.74-40.367 19.418-95.041 30.66-153.293 30.66-58.251 0-112.415-10.731-153.293-30.66-34.747-16.862-54.164-37.812-54.164-57.74s19.928-40.878 54.164-57.74zm-20.44 157.892c47.01 22.483 108.328 35.257 173.733 35.257s126.723-12.263 173.733-35.257c1.022-.511 1.533-.511 2.043-1.022 13.797 9.708 31.681 25.549 31.681 44.966 0 19.928-19.928 41.39-54.164 57.74-40.367 19.418-95.041 30.66-153.293 30.66-58.251 0-112.415-10.731-153.293-30.66-34.747-16.862-54.164-37.812-54.164-57.74 0-18.906 17.373-35.258 31.68-44.966.512.51 1.534 1.022 2.045 1.022zm381.19 184.974c0 19.928-19.928 41.39-54.164 57.74-40.367 19.418-95.041 30.659-153.293 30.659-58.251 0-112.415-10.73-153.293-30.659-34.747-16.862-54.164-37.812-54.164-57.74 0-17.884 15.84-33.214 29.637-43.433 23.505 12.263 51.097 21.46 80.223 25.549-29.126-.511 32.192 11.752 97.597 11.752s126.723-12.263 173.733-35.257c1.533-.511 3.065-1.533 4.598-2.044 13.286 10.22 29.126 25.549 29.126 43.433z" fill="#FFF"/></svg>