<svg class="icon" viewBox="0 0 1024 1024" xmlns="http://www.w3.org/2000/svg" width="128" height="128"><path d="M512 0C230.231 0 0 230.22 0 512c0 285.2 230.22 512 512 512 285.2 0 511.988-230.22 511.988-512C1027.432 230.22 797.2 0 512 0zM355.498 457.308c5.924-.072 45.18-1.95 94.922-3.384V286.02c0-30.14 24.408-54.487 54.488-54.487h13.606c30.08 0 54.488 24.408 54.488 54.487v166.533c51.886.65 90.057.939 94.464 1.107 22.036.831 33.849 19.4 25.13 30.273-6.96 8.657-149.469 167.315-161.583 182.09-13.667 21.481-41.338 6.056-41.338 6.056-9.043-10.476-145.038-173.817-155.201-186.184-7.418-9.067-7.948-28.26 21.024-28.586zm335.919 357.533h-352.85c-29.224 0-52.921-23.697-52.921-52.922 0-29.236 23.697-52.934 52.922-52.934h352.849c29.224 0 52.922 23.698 52.922 52.934.012 29.225-23.686 52.922-52.922 52.922z" fill="#03B48B"/></svg>