<svg class="icon" viewBox="0 0 1205 1024" xmlns="http://www.w3.org/2000/svg" width="128" height="128"><path d="M1189.611 1024H15.058C6.746 1024 0 1017.254 0 1008.942v-30.117c0-8.312 6.746-15.058 15.058-15.058h105.409V421.635c0-33.249 26.954-60.233 60.233-60.233h240.934V240.965c0-33.28 26.955-60.234 60.234-60.234h240.934V60.234c0-33.249 26.954-60.233 60.233-60.233h240.934c33.25 0 60.234 26.984 60.234 60.233v903.533h105.408c8.313 0 15.059 6.746 15.059 15.058v30.117c0 8.312-6.746 15.058-15.059 15.058ZM421.634 421.635H180.7v542.132h240.934V421.635Zm301.168-180.7H481.868v722.832h240.934V240.935Zm301.167-180.67H783.035v903.502h240.934V60.264Z"/></svg>