<svg t="1656253271104" class="icon" viewBox="0 0 1024 1024" version="1.1" xmlns="http://www.w3.org/2000/svg" p-id="2367" width="128" height="128"><path d="M564.46 98.68H96.82a65.08 65.08 0 0 0-65 65v699.26a65.08 65.08 0 0 0 65 65h467.64a65.08 65.08 0 0 0 65-65V163.68a65.08 65.08 0 0 0-65-65z m15 764.26a15 15 0 0 1-15 15H96.82a15 15 0 0 1-15-15V163.68a15 15 0 0 1 15-15h467.64a15 15 0 0 1 15 15zM863.39 98.68H752.46a65.08 65.08 0 0 0-65 65V767.8a25 25 0 0 0 4.54 14.4l95.15 135a25 25 0 0 0 20.39 10.6A25 25 0 0 0 828 917.27l95.78-135a25 25 0 0 0 4.61-14.47V163.68a65.08 65.08 0 0 0-65-65z m-110.93 50h110.93a15 15 0 0 1 15 15v45.58H737.46v-45.58a15 15 0 0 1 15-15z m55.22 710.82l-70.22-99.62V259.26h140.93v500.57z" p-id="2368"></path><path d="M166.18 272.19h194.93a25 25 0 0 0 0-50H166.18a25 25 0 0 0 0 50zM166.18 436.62h194.93a25 25 0 0 0 0-50H166.18a25 25 0 1 0 0 50zM495.11 551.05H166.18a25 25 0 0 0 0 50h328.93a25 25 0 0 0 0-50z" p-id="2369"></path></svg>