<svg class="icon" viewBox="0 0 1024 1024" xmlns="http://www.w3.org/2000/svg" width="128" height="128"><path d="M604.406 0a47.756 47.756 0 0 1 46.639 48.873V390.05h325.213a47.756 47.756 0 0 1 46.638 48.873v536.203A47.756 47.756 0 0 1 976.258 1024h-557.15a47.756 47.756 0 0 1-46.73-48.873V633.95H46.651A47.756 47.756 0 0 1 .013 585.076V48.873A47.756 47.756 0 0 1 46.652 0h557.754zm372.27 442.182H418.924v536.203h557.754V442.182zM708.669 558.545l102.865 278.622h-43.752l-24.995-71.68h-113.71l-25.042 71.68h-45.475l102.353-278.622h47.756zm-25.6 44.358L638.71 729.135h91.555l-47.197-126.232zM341.192 113.711H305.91l1.769 71.074H175.164V372.97h35.235v-22.156h97.233v130.793h33.513V350.813h100.073v22.156h35.281V184.785H341.192v-71.074zm-34.118 107.473v93.23h-96.675v-93.23h96.675zm134.144 0v93.23H341.192v-93.23h100.072z"  fill="currentColor"/></svg>