<svg class="icon" viewBox="0 0 1024 1024" xmlns="http://www.w3.org/2000/svg" width="128" height="128"><path d="M651.31 390.05h325.214a47.756 47.756 0 0 1 46.638 48.874v536.203A47.756 47.756 0 0 1 976.524 1024H419.328a47.756 47.756 0 0 1-46.639-48.873V633.95H46.871A47.756 47.756 0 0 1 .326 585.076V48.873A47.756 47.756 0 0 1 46.87 0h557.801a47.756 47.756 0 0 1 46.639 48.873V390.05zM46.919 585.077h557.707V48.873H46.918v536.203zm635.671-16.523-102.4 278.62h45.522l25.041-71.68h113.71l24.995 71.68h43.753l-102.865-278.62h-47.756zm-22.202 170.589 44.358-126.231 47.197 126.23h-91.555zM306.176 113.71h35.235v71.074h135.354V372.97h-35.281v-22.156H341.41v130.793h-33.513V350.813h-97.28v22.156h-35.235V184.785h132.515l-1.722-71.074zm-95.511 200.704h96.628v-93.231h-96.628v93.23zm130.792 0H441.53v-93.231H341.457v93.23z"  fill="currentColor"/></svg>