<svg class="icon" viewBox="0 0 1024 1024" xmlns="http://www.w3.org/2000/svg" width="128" height="128"><path d="M63.58 64.12v897.906h894.836V64.119H63.58zm833.953 827.3h-768.39V127.05h768.39v764.37z"/><path d="M205.578 649.805h-25.566V465.35h25.566v79.194h87.676V465.35h25.441v184.455h-25.442v-83.31h-87.676v83.31zm201.167 0V487.299H345.01v-21.95h149.16v21.95h-61.859v162.506h-25.566zm282.731 0V483.807h-.497l-58.992 165.997h-24.069l-58.99-165.997h-.499v165.997h-25.566V465.35h45.771l53.128 152.028h.5l52.13-152.028h42.653v184.455h-25.569zm184.082 0H762.186V465.35h25.566v162.505h85.806v21.95zm-42.983-433.243-191.861 16.884 38.832 40.794c-6.987 7.475-56.188 62.11-78.973 141.857 0 0 127.907-90.559 161.674-53.72l-34.014-36.99 64.434 67.687 39.908-176.512z"/></svg>