<svg t="1655224467096" class="icon" viewBox="0 0 1024 1024" version="1.1" xmlns="http://www.w3.org/2000/svg" p-id="2784" width="128" height="128"><path d="M357.573973 245.76c-49.46944 0-89.572693-40.690347-89.572693-90.886827 0-50.193067 40.103253-90.883413 89.572693-90.883413 49.46944 0 89.572693 40.690347 89.572693 90.883413C447.146667 205.069653 407.043413 245.76 357.573973 245.76zM639.740587 245.76c-50.100907 0-90.712747-40.690347-90.712747-90.886827 0-50.193067 40.61184-90.883413 90.712747-90.883413S730.453333 104.680107 730.453333 154.873173C730.453333 205.069653 689.841493 245.76 639.740587 245.76zM75.472213 303.998293C100.693333 310.613333 126.286507 395.431253 213.32992 463.387307c87.043413 67.956053 106.110293 69.328213 175.404373 83.37408 75.47904 15.301973 164.693333 3.50208 229.311147-17.332907C682.666667 508.586667 722.52416 481.55648 760.111787 453.92896c37.587627-27.62752 106.10688-92.002987 107.0592-99.454293 0.948907-7.451307-18.694827 3.075413-38.87104 9.61536-20.179627 6.536533-23.548587 7.028053-51.049813 15.172267-24.14592 7.150933-39.973547 4.11648-46.800213-21.456213-6.826667-25.576107 2.689707-36.56704 25.105067-43.738453 22.41536-7.174827 159.61088-49.851733 184.73984-51.162453 23.394987-1.215147 43.874987 6.74816 45.380267 29.289813 1.59744 24.05376 3.300693 202.9056-3.08224 215.33696s-14.062933 14.404267-28.42624 13.98784c-14.36672-0.416427-33.631573-13.182293-33.706667-27.723093-0.08192-14.5408 2.85696-93.11232-1.73056-94.45376s-18.199893 21.292373-63.122773 63.73376c-44.926293 42.437973-52.415147 46.318933-105.854293 77.202773-53.435733 30.88384-97.338027 39.983787-99.14368 47.578453-1.809067 7.601493 18.005333 52.271787 19.913387 78.660267 1.901227 26.385067 3.966293 102.980267 3.966293 102.980267s61.180587-11.12064 92.699307-2.89792c31.525547 8.22272 58.466987 21.79072 69.218987 46.318933 11.229867 25.62048 18.55488 65.30048-3.310933 92.1088-21.865813 26.80832-49.565013 54.975147-107.963733 54.975147-58.402133 0-86.582613-0.249173-112.882347-19.899733-26.299733-19.647147-24.497493-36.973227-24.026453-50.367147 0.47104-13.397333 0.293547-23.360853 10.24-75.093333 28.44672-147.913387-15.09376-207.755947-17.066667-208.213333s-33.088853 5.59104-74.00448 9.048747c-40.9088 3.464533-84.384427 1.140053-84.384427 1.140053s-25.859413 45.677227-17.93024 126.96576c7.929173 81.29536 19.930453 132.48512 13.359787 160.935253-6.567253 28.44672-19.848533 34.863787-47.909547 45.16864-28.064427 10.31168-105.444693 17.339733-145.261227-2.532693-39.816533-19.87584-60.38528-47.486293-62.614187-82.036053C160.426667 830.57664 171.547307 797.279573 210.490027 778.24s117.374293-13.233493 127.133013-8.557227c5.986987 2.8672-5.28384-24.517973-0.83968-74.499413 4.549973-51.2 26.456747-86.729387 19.339947-91.02336-7.113387-4.293973-88.122027-12.516693-181.37088-90.14272-76.629333-63.788373-145.896107-168.605013-136.430933-188.279467C47.786667 306.06336 75.472213 303.998293 75.472213 303.998293L75.472213 303.998293z" p-id="2785"></path></svg>