<svg class="icon" viewBox="0 0 1024 1024" xmlns="http://www.w3.org/2000/svg" width="128" height="128"><path d="M869.888 335.36H148.48c-33.792 0-61.44-27.648-61.44-61.44V148.48c0-33.792 27.648-61.44 61.44-61.44h721.408c33.792 0 61.44 27.648 61.44 61.44v125.44c0 33.792-27.136 61.44-61.44 61.44zm-733.184-49.664h744.96V136.704h-744.96v148.992zm37.888 248.32H148.48c-33.792 0-61.44-27.648-61.44-61.44v-26.112c0-33.792 27.648-61.44 61.44-61.44h26.112c33.792 0 61.44 27.648 61.44 61.44v26.112c0 34.304-27.648 61.44-61.44 61.44zm-37.888-49.664h49.664v-49.664h-49.664v49.664z"/><path d="M310.784 434.688h347.648c13.824 0 25.088 11.264 25.088 25.088s-11.264 25.088-25.088 25.088H310.784c-13.824 0-25.088-11.264-25.088-25.088s11.264-25.088 25.088-25.088zm620.544 223.744c0 13.824-11.264 25.088-25.088 25.088H558.592c-13.824 0-25.088-11.264-25.088-25.088s11.264-25.088 25.088-25.088H906.24c14.336 0 25.088 11.264 25.088 25.088zm0 198.656c0 13.824-11.264 25.088-25.088 25.088H558.592c-13.824 0-25.088-11.264-25.088-25.088S544.768 832 558.592 832H906.24c14.336 0 25.088 11.264 25.088 25.088zM136.704 484.352h49.664v397.312c-27.648 0-49.664-22.016-49.664-49.664V484.352zm49.664 148.992H335.36v49.664H186.368v-49.664zm0 198.656H335.36v49.664H186.368V832zm251.904-99.328H381.44c-25.6 0-46.08-20.48-46.08-46.08V629.76c0-25.6 20.48-46.08 46.08-46.08h56.832c25.6 0 46.08 20.48 46.08 46.08v56.832c0 25.6-20.48 46.08-46.08 46.08zm-3.584-49.664v-49.664h-49.664v49.664h49.664zm3.584 248.32H381.44c-25.6 0-46.08-20.48-46.08-46.08v-56.832c0-25.6 20.48-46.08 46.08-46.08h56.832c25.6 0 46.08 20.48 46.08 46.08v56.832c0 25.6-20.48 46.08-46.08 46.08zm-3.584-49.664V832h-49.664v49.664h49.664zM757.76 186.368h49.664c13.824 0 25.088 11.264 25.088 25.088s-11.264 25.088-25.088 25.088H757.76c-13.824 0-25.088-11.264-25.088-25.088s11.264-25.088 25.088-25.088z"/></svg>