<svg class="icon" viewBox="0 0 1024 1024" xmlns="http://www.w3.org/2000/svg" width="128" height="128"><path d="M392.634 242.558c2.711-21.94 7.144-43.658 13.362-64.865-36.992-49.653-86.869-83.042-141.912-96.022 23.854 30.934 54.469 77.27 77.047 134.1a445.19 445.19 0 0 1 51.503 26.787zm292.786-26.373c22.514-57.02 53.257-103.484 77.175-134.514-54.629 12.884-104.218 45.89-141.083 94.874a396.178 396.178 0 0 1 13.649 65.822 452.36 452.36 0 0 1 50.259-26.182zm-70 72.136a337.305 337.305 0 0 0-64.45 67.767c17.954 1.945 35.59 5.74 52.938 10.428 29.084 7.877 57.275 19.134 83.425 34.378v-.096c25.002-93.407 80.14-158.75 123.926-198.07-74.272 11.862-142.167 42.126-195.839 85.593zM807.432 615.07a293.87 293.87 0 0 0-70.19-138.755l-35.143 34.696L807.432 615.07zm-100.964 210.7 103.77 102.623c2.01-8.675 2.998-17.604 2.999-26.597V720.34l-106.77 105.43zm-61.421 0L514.232 696.74 383.418 825.897l130.75 129.124L645.048 825.77zm-147.015 19.038a21.303 21.303 0 0 1-.032-30.392 21.685 21.685 0 1 1 37.089 15.148 21.367 21.367 0 0 1-6.378 15.212 21.94 21.94 0 0 1-30.679.032zm46.847 140.509 36.801 36.45a22.993 22.993 0 0 1 1.882 2.074h106.131a123.607 123.607 0 0 0 101.89-53.29L675.725 856.13 544.88 985.317zm146.823-46.114a21.111 21.111 0 0 1 6.41 15.148c0 11.864-9.726 21.463-21.749 21.463s-21.75-9.6-21.75-21.463c0-11.895 9.727-21.43 21.75-21.43 5.804 0 11.29 2.264 15.34 6.282zm110.5-268.708L671.324 541.34 544.88 666.254 675.757 795.6l126.445-125.106zm-141.146-11.8a21.877 21.877 0 0 1 15.307-6.218 21.717 21.717 0 0 1 15.371 6.219 21.207 21.207 0 0 1 0 30.391 21.781 21.781 0 0 1-30.71 0 21.239 21.239 0 0 1 .032-30.391zM387.723 510.98 514.17 635.894 640.614 510.98 514.169 386.097 387.723 510.98zm147.398 4.974a21.685 21.685 0 0 1-21.813 21.463 21.59 21.59 0 0 1-21.718-21.494c0-11.864 9.727-21.463 21.718-21.43a21.845 21.845 0 0 1 21.813 21.461zM352.644 856.161 235.766 971.636a123.926 123.926 0 0 0 101.283 52.236h185.315l-23.503-23.311-146.217-144.4zm-.734 119.653a21.622 21.622 0 0 1-21.749-21.463 21.813 21.813 0 1 1 37.089-15.148 21.21 21.21 0 0 1 6.378 15.148 21.558 21.558 0 0 1-21.718 21.463zm-138.5-257.132V901.7c.032 9.376 1.148 18.784 3.349 27.873L321.838 825.8 213.41 718.681zm492.611-272.28a300.407 300.407 0 0 0-133.908-63.717l99.211 97.967 34.697-34.25zM218.864 617.078l107.438-106.1-36.036-35.59a293.615 293.615 0 0 0-71.402 141.69zm138.149-136.491 99.625-98.382a300.79 300.79 0 0 0-135.12 63.366l35.495 35.016zm126.413 185.57L356.95 541.371 226.167 670.527l126.445 124.978 130.814-129.347zm-146.791 22.93a21.207 21.207 0 0 1-.032-30.265 21.813 21.813 0 0 1 30.71-.127 21.207 21.207 0 0 1 .032 30.36 21.813 21.813 0 0 1-30.71.031zm174.313-313.515v.064c.829 0 1.69-.192 2.519-.192.733 0 1.435.16 2.169.16v-.064a374.712 374.712 0 0 1 99.88-114.805l-.032-.51a382.206 382.206 0 0 0-16.168-100.742 387.309 387.309 0 0 0-85.88-150.3 388.106 388.106 0 0 0-101.221 239.529c-.223 4.05-.989 8.068-1.084 12.15l.733.606a373.883 373.883 0 0 1 99.084 114.104zm-87.284-9.344a343.077 343.077 0 0 1 51.885-10.173c-17.635-25.193-39.512-47.58-64.036-67.512-53.799-43.626-155.306-79.216-229.961-91.11 5.708 5.23 153.074 193.67 157.666 203.524 26.469-15.467 54.979-26.788 84.446-34.729z"/></svg>