<svg t="1655393564437" class="icon" viewBox="0 0 1075 1024" version="1.1" xmlns="http://www.w3.org/2000/svg" p-id="8007" width="128" height="128"><path d="M574.24457099 912.96914333A243.809524 243.809524 0 1 1 746.66666699 984.38095233a242.273524 242.273524 0 0 1-172.422096-71.411809zM547.15733299 740.57142833a199.484952 199.484952 0 1 0 199.484953-199.484952 199.704381 199.704381 0 0 0-199.460572 199.484952z m-2.681904 207.238095H112.76190499V45.71428533h828.952381v480.938667a289.889524 289.889524 0 0 0-53.369905-38.595048V96.91428533H166.10742899v796.355048H500.66285699a290.913524 290.913524 0 0 0 43.885714 54.51581z m74.995809-200.240761l34.450286-34.499048 73.289143 73.264762 136.899047-136.923429 34.499048 34.474667-136.923429 136.923429 0.121905 0.146285-34.450286 34.499048z m-343.235048-159.280762v-56.588191h201.19162v56.588191z m0-170.666667v-56.58819h501.930667v56.58819z m0-170.666667V190.34209533h501.930667v56.612571z" p-id="8008"></path></svg>