<svg class="icon" viewBox="0 0 1024 1024" xmlns="http://www.w3.org/2000/svg" width="128" height="128"><path d="M0 512a512 512 0 1 0 1024 0A512 512 0 1 0 0 512Z" fill="#2ecc71"/><path d="M649.123 698.205a23.273 23.273 0 0 1-23.273-23.273V279.296a23.273 23.273 0 0 1 23.273-23.273h49.059a23.273 23.273 0 0 1 23.273 23.273v395.636a23.273 23.273 0 0 1-23.273 23.273zm-346.578 0a23.273 23.273 0 0 1-23.272-23.273V498.991a23.273 23.273 0 0 1 23.272-23.273h49.06a23.273 23.273 0 0 1 23.272 23.273v175.941a23.273 23.273 0 0 1-23.273 23.273zm173.29 0a23.273 23.273 0 0 1-23.274-23.273V408.53a23.273 23.273 0 0 1 23.273-23.272h49.082a23.273 23.273 0 0 1 23.273 23.272v266.38a23.273 23.273 0 0 1-23.273 23.273z" fill="#FFF"/></svg>