<svg class="icon" viewBox="0 0 1024 1024" xmlns="http://www.w3.org/2000/svg" width="128" height="128"><path d="M512 1024c282.766 0 512-229.234 512-512S794.766 0 512 0 0 229.234 0 512s229.234 512 512 512zm-.398-349.924c-101.405-.056-197.917-42.78-265.102-117.361a72.932 72.932 0 0 1 0-98.077c67.185-74.61 163.726-117.305 265.102-117.305 101.433 0 197.973 42.752 265.13 117.362 25.174 27.961 25.202 69.973.057 97.991-67.214 74.582-163.754 117.305-265.187 117.39zm0-88.547c44.373-.085 80.27-35.357 80.327-78.905 0-43.548-36.01-78.848-80.356-78.82-44.373 0-80.327 35.328-80.298 78.877 0 43.548 35.953 78.848 80.327 78.848zm0-107.236c15.929 0 28.87 12.687 28.87 28.331a28.388 28.388 0 0 1-17.834 26.254 29.298 29.298 0 0 1-31.488-6.144 27.99 27.99 0 0 1-6.258-30.947c4.466-10.61 15.02-17.522 26.71-17.494z" fill="#498AE6"/></svg>