<svg id="visual" viewBox="0 0 900 600" width="900" height="600" xmlns="http://www.w3.org/2000/svg" xmlns:xlink="http://www.w3.org/1999/xlink" version="1.1"><rect x="0" y="0" width="900" height="600" fill="#ffffff"></rect><defs><linearGradient id="grad1_0" x1="33.3%" y1="0%" x2="100%" y2="100%"><stop offset="20%" stop-color="#fbae3c" stop-opacity="1"></stop><stop offset="80%" stop-color="#fbae3c" stop-opacity="1"></stop></linearGradient></defs><defs><linearGradient id="grad1_1" x1="33.3%" y1="0%" x2="100%" y2="100%"><stop offset="20%" stop-color="#fbae3c" stop-opacity="1"></stop><stop offset="80%" stop-color="#ffd69f" stop-opacity="1"></stop></linearGradient></defs><defs><linearGradient id="grad1_2" x1="33.3%" y1="0%" x2="100%" y2="100%"><stop offset="20%" stop-color="#ffffff" stop-opacity="1"></stop><stop offset="80%" stop-color="#ffd69f" stop-opacity="1"></stop></linearGradient></defs><defs><linearGradient id="grad2_0" x1="0%" y1="0%" x2="66.7%" y2="100%"><stop offset="20%" stop-color="#fbae3c" stop-opacity="1"></stop><stop offset="80%" stop-color="#fbae3c" stop-opacity="1"></stop></linearGradient></defs><defs><linearGradient id="grad2_1" x1="0%" y1="0%" x2="66.7%" y2="100%"><stop offset="20%" stop-color="#ffd69f" stop-opacity="1"></stop><stop offset="80%" stop-color="#fbae3c" stop-opacity="1"></stop></linearGradient></defs><defs><linearGradient id="grad2_2" x1="0%" y1="0%" x2="66.7%" y2="100%"><stop offset="20%" stop-color="#ffd69f" stop-opacity="1"></stop><stop offset="80%" stop-color="#ffffff" stop-opacity="1"></stop></linearGradient></defs><g transform="translate(900, 0)"><path d="M0 270.4C-24.5 252.2 -49.1 234 -71.7 220.6C-94.3 207.3 -115.1 198.7 -136.4 187.7C-157.6 176.7 -179.4 163.4 -201.4 146.4C-223.4 129.3 -245.7 108.6 -257.2 83.6C-268.7 58.6 -269.6 29.3 -270.4 0L0 0Z" fill="#ffeacf"></path><path d="M0 180.3C-16.4 168.2 -32.7 156 -47.8 147.1C-62.9 138.2 -76.7 132.4 -90.9 125.1C-105.1 117.8 -119.6 108.9 -134.3 97.6C-149 86.2 -163.8 72.4 -171.5 55.7C-179.1 39 -179.7 19.5 -180.3 0L0 0Z" fill="#ffc270"></path><path d="M0 90.1C-8.2 84.1 -16.4 78 -23.9 73.5C-31.4 69.1 -38.4 66.2 -45.5 62.6C-52.5 58.9 -59.8 54.5 -67.1 48.8C-74.5 43.1 -81.9 36.2 -85.7 27.9C-89.6 19.5 -89.9 9.8 -90.1 0L0 0Z" fill="#fbae3c"></path></g><g transform="translate(0, 600)"><path d="M0 -270.4C23.9 -251.8 47.8 -233.2 72.3 -222.5C96.8 -211.9 121.8 -209.2 144.6 -199C167.4 -188.8 188 -171 207.9 -151.1C227.8 -131.1 246.9 -109.1 257.2 -83.6C267.5 -58 268.9 -29 270.4 0L0 0Z" fill="#ffeacf"></path><path d="M0 -180.3C15.9 -167.9 31.9 -155.5 48.2 -148.4C64.5 -141.3 81.2 -139.5 96.4 -132.7C111.6 -125.9 125.4 -114 138.6 -100.7C151.9 -87.4 164.6 -72.7 171.5 -55.7C178.3 -38.7 179.3 -19.3 180.3 0L0 0Z" fill="#ffc270"></path><path d="M0 -90.1C8 -83.9 15.9 -77.7 24.1 -74.2C32.3 -70.6 40.6 -69.7 48.2 -66.3C55.8 -62.9 62.7 -57 69.3 -50.4C75.9 -43.7 82.3 -36.4 85.7 -27.9C89.2 -19.3 89.6 -9.7 90.1 0L0 0Z" fill="#fbae3c"></path></g></svg>