<?xml version="1.0" standalone="no"?><svg xmlns="http://www.w3.org/2000/svg" viewBox="0 0 1440 320"><path fill="#0099ff" fill-opacity="1" d="M0,32L17.1,64C34.3,96,69,160,103,160C137.1,160,171,96,206,101.3C240,107,274,181,309,224C342.9,267,377,277,411,261.3C445.7,245,480,203,514,192C548.6,181,583,203,617,181.3C651.4,160,686,96,720,101.3C754.3,107,789,181,823,202.7C857.1,224,891,192,926,181.3C960,171,994,181,1029,181.3C1062.9,181,1097,171,1131,165.3C1165.7,160,1200,160,1234,165.3C1268.6,171,1303,181,1337,165.3C1371.4,149,1406,107,1423,85.3L1440,64L1440,320L1422.9,320C1405.7,320,1371,320,1337,320C1302.9,320,1269,320,1234,320C1200,320,1166,320,1131,320C1097.1,320,1063,320,1029,320C994.3,320,960,320,926,320C891.4,320,857,320,823,320C788.6,320,754,320,720,320C685.7,320,651,320,617,320C582.9,320,549,320,514,320C480,320,446,320,411,320C377.1,320,343,320,309,320C274.3,320,240,320,206,320C171.4,320,137,320,103,320C68.6,320,34,320,17,320L0,320Z"></path></svg>