<?xml version="1.0" encoding="UTF-8" standalone="no"?>
<!-- Created with Inkscape (http://www.inkscape.org/) -->

<svg
   xmlns:dc="http://purl.org/dc/elements/1.1/"
   xmlns:cc="http://creativecommons.org/ns#"
   xmlns:rdf="http://www.w3.org/1999/02/22-rdf-syntax-ns#"
   xmlns:svg="http://www.w3.org/2000/svg"
   xmlns="http://www.w3.org/2000/svg"
   xmlns:sodipodi="http://sodipodi.sourceforge.net/DTD/sodipodi-0.dtd"
   xmlns:inkscape="http://www.inkscape.org/namespaces/inkscape"
   width="210mm"
   height="297mm"
   viewBox="0 0 210 297"
   version="1.1"
   id="svg8"
   inkscape:version="0.92.3 (2405546, 2018-03-11)"
   sodipodi:docname="freeface.svg">
  <defs
     id="defs2" />
  <sodipodi:namedview
     id="base"
     pagecolor="#ffffff"
     bordercolor="#666666"
     borderopacity="1.0"
     inkscape:pageopacity="0.0"
     inkscape:pageshadow="2"
     inkscape:zoom="0.35"
     inkscape:cx="400"
     inkscape:cy="560"
     inkscape:document-units="mm"
     inkscape:current-layer="layer1"
     showgrid="false"
     inkscape:window-width="1920"
     inkscape:window-height="1018"
     inkscape:window-x="-8"
     inkscape:window-y="-8"
     inkscape:window-maximized="1" />
  <metadata
     id="metadata5">
    <rdf:RDF>
      <cc:Work
         rdf:about="">
        <dc:format>image/svg+xml</dc:format>
        <dc:type
           rdf:resource="http://purl.org/dc/dcmitype/StillImage" />
        <dc:title></dc:title>
      </cc:Work>
    </rdf:RDF>
  </metadata>
  <g
     inkscape:label="Layer 1"
     inkscape:groupmode="layer"
     id="layer1">
    <ellipse
       id="path3713"
       cx="115.66071"
       cy="132.95833"
       rx="89.958336"
       ry="88.446426"
       style="stroke-width:0.26458332;fill:#ffff00" />
    <ellipse
       style="fill:#000080;stroke-width:0.26458332"
       id="path3715"
       cx="86.556549"
       cy="104.23214"
       rx="23.056549"
       ry="19.654762" />
    <ellipse
       style="fill:#000080;stroke-width:0.26458332"
       id="path3717"
       cx="151.19048"
       cy="104.98809"
       rx="25.702381"
       ry="18.898809" />
    <ellipse
       style="fill:#f9f9f9;stroke-width:0.26458332"
       id="path3719"
       cx="83.532738"
       cy="106.12202"
       rx="10.961308"
       ry="7.1815472" />
    <ellipse
       style="fill:#f9f9f9;stroke-width:0.26458332"
       id="path3721"
       cx="151.56845"
       cy="108.0119"
       rx="10.205358"
       ry="7.5595236" />
    <path
       style="fill:none;stroke:#000000;stroke-width:0.26458332px;stroke-linecap:butt;stroke-linejoin:miter;stroke-opacity:1"
       d="m 74.839284,157.14881 c 0.432858,0.72142 1.718421,3.55667 3.023809,4.53571 0.726834,0.54513 1.558407,0.94435 2.267858,1.51191 0.55654,0.44523 1.007938,1.00793 1.511905,1.5119 0.755952,0.50397 1.541024,0.96678 2.267858,1.51191 0.855263,0.64144 1.412595,1.62641 2.267857,2.26785 0.450763,0.33807 1.061141,0.41788 1.511904,0.75595 3.269713,3.26972 -0.200261,0.11848 3.023809,2.26786 1.790951,1.19397 -0.541396,1.07946 3.023809,2.26786 0.717161,0.23905 1.550699,-0.23905 2.267857,0 0.86192,0.28731 1.455235,1.10559 2.267858,1.51191 0.712719,0.35636 1.555139,0.39959 2.267862,0.75595 0.81262,0.40631 1.40593,1.22459 2.26785,1.5119 0.71716,0.23905 1.52219,-0.12428 2.26786,0 2.85016,0.47503 1.92365,0.96183 4.53571,2.26786 0.60477,0.30238 1.6631,-0.30238 2.26786,0 0.63748,0.31874 0.91889,1.11656 1.51191,1.5119 0.20966,0.13978 0.51149,-0.0611 0.75595,0 0.77305,0.19327 1.55514,0.3996 2.26786,0.75596 0.31873,0.15936 0.43721,0.59658 0.75595,0.75595 0.22538,0.11269 0.5169,-0.0797 0.75595,0 0.53454,0.17818 0.96528,0.61929 1.5119,0.75595 0.73339,0.18335 1.51191,0 2.26786,0 2.01588,0 4.03175,0 6.04762,0 1.48641,0 4.07914,0.45658 5.29167,-0.75595 0.17818,-0.17818 -0.17818,-0.57777 0,-0.75595 0.17818,-0.17818 0.50396,0 0.75595,0 0.50397,0 1.09258,0.27955 1.5119,0 0.46883,-0.31255 0.28714,-1.19936 0.75596,-1.51191 0.41932,-0.27955 1.03379,0.15937 1.5119,0 0.33807,-0.11269 0.43722,-0.59658 0.75595,-0.75595 0.22539,-0.11269 0.53057,0.11269 0.75596,0 0.31873,-0.15937 0.43721,-0.59658 0.75595,-0.75595 0.22538,-0.11269 0.57777,0.17817 0.75595,0 0.39842,-0.39843 0.35753,-1.11349 0.75595,-1.51191 0.39843,-0.39842 1.11349,-0.35753 1.51191,-0.75595 0.39842,-0.39842 0.35753,-1.11348 0.75595,-1.5119 0.17818,-0.17819 0.57777,0.17817 0.75595,0 0.17818,-0.17819 -0.17818,-0.57778 0,-0.75596 0.39842,-0.39842 1.04309,-0.4434 1.51191,-0.75595 0.29651,-0.19767 0.45944,-0.55828 0.75595,-0.75595 0.46882,-0.31255 1.11348,-0.35753 1.5119,-0.75596 0.8909,-0.89089 1.14095,-2.46035 2.26786,-3.02381 0.71272,-0.35635 1.64563,-0.25816 2.26786,-0.75595 0.70945,-0.56756 0.86947,-1.62542 1.5119,-2.26785 0.17818,-0.17818 0.54629,0.13977 0.75596,0 0.59301,-0.39535 1.00793,-1.00794 1.5119,-1.51191 0.25198,-0.25198 0.50397,-0.50397 0.75595,-0.75595 0.25199,-0.25199 0.41788,-0.64326 0.75596,-0.75595 0.4781,-0.15937 1.09257,0.27955 1.5119,0 0.46882,-0.31255 0.35753,-1.11349 0.75595,-1.51191 0.17818,-0.17818 0.57777,0.17818 0.75596,0 0.17817,-0.17818 -0.17819,-0.57777 0,-0.75595 0.17817,-0.17818 0.53057,0.11269 0.75595,0 1.86826,-0.93413 -0.26094,-0.75595 1.5119,-0.75595"
       id="path3723"
       inkscape:connector-curvature="0" />
  </g>
</svg>
